<?xml version="1.0" encoding="iso-8859-1"?>
<!-- Generator: Adobe Illustrator 19.0.0, SVG Export Plug-In . SVG Version: 6.00 Build 0)  -->
<svg version="1.1" id="Layer_1" xmlns="http://www.w3.org/2000/svg" xmlns:xlink="http://www.w3.org/1999/xlink" x="0px" y="0px"
	 viewBox="0 0 504 504" style="enable-background:new 0 0 504 504;" xml:space="preserve">
<circle style="fill:#FFD05B;" cx="252" cy="252" r="252"/>
<rect x="94.5" y="94.5" style="fill:#54C0EB;" width="315" height="315"/>
<rect x="122.1" y="160.7" style="fill:#FFFFFF;" width="259.9" height="221.2"/>
<rect x="122.1" y="118" style="fill:#F1543F;" width="32.5" height="19.2"/>
<rect x="175.7" y="118" style="fill:#FFFFFF;" width="32.5" height="19.2"/>
<rect x="229.4" y="118" style="fill:#2B3B4E;" width="32.5" height="19.2"/>
<circle style="fill:#324A5E;" cx="252" cy="271.3" r="80.9"/>
<g>
	<polygon style="fill:#FFFFFF;" points="215.2,304.8 180.2,271.3 215.2,237.9 225.6,248.8 202,271.3 225.6,293.9 	"/>
	<polygon style="fill:#FFFFFF;" points="288.8,304.8 278.4,293.9 302,271.3 278.4,248.8 288.8,237.9 323.8,271.3 	"/>
	
		<rect x="244.499" y="213.507" transform="matrix(-0.9299 -0.3678 0.3678 -0.9299 386.5471 616.2808)" style="fill:#FFFFFF;" width="15" height="115.599"/>
</g>
<g>
</g>
<g>
</g>
<g>
</g>
<g>
</g>
<g>
</g>
<g>
</g>
<g>
</g>
<g>
</g>
<g>
</g>
<g>
</g>
<g>
</g>
<g>
</g>
<g>
</g>
<g>
</g>
<g>
</g>
</svg>
