<?xml version="1.0" encoding="iso-8859-1"?>
<!-- Generator: Adobe Illustrator 19.0.0, SVG Export Plug-In . SVG Version: 6.00 Build 0)  -->
<svg version="1.1" id="Layer_1" xmlns="http://www.w3.org/2000/svg" xmlns:xlink="http://www.w3.org/1999/xlink" x="0px" y="0px"
	 viewBox="0 0 504 504" style="enable-background:new 0 0 504 504;" xml:space="preserve">
<circle style="fill:#84DBFF;" cx="252" cy="252" r="252"/>
<rect x="94.5" y="94.5" style="fill:#324A5E;" width="315" height="315"/>
<g>
	<rect x="122.1" y="161.6" style="fill:#FFFFFF;" width="259.9" height="220"/>
	<rect x="122.1" y="118.3" style="fill:#FFFFFF;" width="32.5" height="19.4"/>
</g>
<rect x="175.7" y="118.3" style="fill:#F9B54C;" width="32.5" height="19.4"/>
<rect x="229.4" y="118.3" style="fill:#54C0EB;" width="32.5" height="19.4"/>
<g>
	<path style="fill:#ACB3BA;" d="M345.7,293.6h-12.8c-1.8,9.9-5.3,19.3-10.6,28c-0.2-0.1-0.5-0.3-0.7-0.4c-1.3-0.7-2.6-1.4-3.9-2
		c-0.4-0.2-0.7-0.4-1.1-0.5c-1.7-0.8-3.5-1.6-5.3-2.3c-0.4-0.2-0.8-0.3-1.2-0.5c-1.5-0.6-3-1.1-4.5-1.7c-0.6-0.2-1.2-0.4-1.8-0.6
		c-1.6-0.5-3.2-1-4.8-1.5c-0.3-0.1-0.6-0.2-0.9-0.3v-0.1H298c0.1-0.7,0.2-1.4,0.4-2.1c0.1-0.7,0.3-1.5,0.4-2.2
		c0.4-2.8,0.8-5.6,1.2-8.5v-0.1c0.2-1.7,0.3-3.5,0.4-5.2h-12.7c-0.1,1.1-0.1,2.3-0.2,3.4c0,0.1,0,0.2,0,0.3
		c-0.4,3.6-0.9,7.1-1.5,10.6c-0.1,0.4-0.1,0.7-0.2,1.1c-0.7-0.1-1.4-0.2-2.1-0.4c-0.7-0.1-1.5-0.3-2.2-0.4c-2.7-0.4-5.5-0.8-8.3-1.2
		c-0.2,0-0.3,0-0.5-0.1c-3-0.3-5.9-0.6-9-0.7c-0.8,0-1.6-0.1-2.4-0.1c-0.9,0-1.8-0.1-2.7-0.1v-12.4H246V306c-0.9,0-1.8,0.1-2.7,0.1
		c-0.8,0-1.6,0.1-2.3,0.1c-3,0.2-6,0.4-9,0.7c-0.2,0-0.3,0-0.5,0.1c-2.8,0.3-5.6,0.7-8.3,1.2c-0.7,0.1-1.5,0.2-2.2,0.4
		c-0.7,0.1-1.4,0.2-2.1,0.4c-0.1-0.4-0.1-0.7-0.2-1.1c-0.6-3.5-1.1-7-1.5-10.6c0-0.1,0-0.3,0-0.4c-0.1-1.1-0.1-2.3-0.2-3.4h-12.7
		c0.1,1.7,0.2,3.5,0.4,5.2l0,0c0.3,2.9,0.7,5.8,1.2,8.6c0.1,0.7,0.2,1.4,0.3,2.1s0.2,1.5,0.4,2.2h-0.1v0.1c-0.3,0.1-0.6,0.2-0.9,0.3
		c-1.6,0.5-3.2,0.9-4.7,1.4c-0.6,0.2-1.2,0.4-1.8,0.6c-1.5,0.5-3,1.1-4.4,1.6c-0.4,0.2-0.9,0.3-1.3,0.5c-1.8,0.7-3.6,1.5-5.3,2.3
		c-0.4,0.2-0.8,0.4-1.2,0.6c-1.3,0.6-2.6,1.3-3.8,2c-0.2,0.1-0.5,0.3-0.8,0.4c-5.3-8.7-8.9-18.1-10.6-28h-12.8
		c1.9,12.3,6.2,24.1,12.8,34.8l-0.2,0.1l3.8,5.3l0,0l3.6,5l0.2-0.1c16.6,20.4,41.1,33.1,67.2,34.8v0.2h12.6v-0.2
		c26.2-1.8,50.6-14.4,67.2-34.9l0.2,0.1l3.6-5l0,0l3.8-5.3l-0.2-0.1C339.4,317.7,343.7,305.9,345.7,293.6z M189.2,332
		c0.1-0.1,0.2-0.1,0.3-0.2c1.3-0.7,2.6-1.4,4.1-2c0.1-0.1,0.3-0.1,0.4-0.2c1.3-0.6,2.6-1.1,4-1.7c0.5-0.2,1-0.4,1.5-0.6
		c1-0.4,2.1-0.8,3.2-1.2c0.6-0.2,1.2-0.4,1.8-0.6c1.1-0.4,2.2-0.7,3.3-1c0.4-0.1,0.7-0.2,1.1-0.3c0,0,0,0,0,0.1
		c0.8,2.8,1.6,5.5,2.5,8.1c0.2,0.6,0.4,1.2,0.6,1.9c0.9,2.5,1.9,5,2.9,7.3c0.1,0.3,0.3,0.6,0.4,0.9c0.9,2.1,1.9,4.1,3,6
		c0.3,0.5,0.5,1,0.8,1.4c1.2,2,2.3,3.9,3.6,5.7c0.1,0.1,0.1,0.2,0.2,0.4C210,350.9,198.3,342.7,189.2,332z M245.7,359.7
		c-0.1-0.1-0.2-0.1-0.3-0.2c-1.1-0.5-2.1-1.1-3.2-1.8c-0.1-0.1-0.3-0.2-0.4-0.3c-1-0.7-1.9-1.5-2.8-2.4c-0.2-0.2-0.5-0.4-0.7-0.7
		c-1-1-2-2.1-3-3.3c-0.2-0.2-0.3-0.4-0.5-0.6c-0.9-1.1-1.7-2.3-2.5-3.6c-0.2-0.3-0.4-0.6-0.6-0.9c-0.9-1.5-1.8-3-2.7-4.6
		c-0.1-0.3-0.3-0.6-0.4-0.9c-0.8-1.5-1.5-3-2.2-4.6c-0.2-0.4-0.3-0.7-0.5-1.1c-0.8-1.9-1.5-3.8-2.2-5.8c-0.1-0.4-0.2-0.8-0.4-1.1
		c-0.6-1.8-1.2-3.7-1.7-5.6c-0.1-0.2-0.1-0.5-0.2-0.7c0.4-0.1,0.7-0.1,1.1-0.2c3.6-0.6,7.2-1.2,10.8-1.6c0.2,0,0.5,0,0.7-0.1
		c3.5-0.4,7-0.6,10.5-0.8c0.4,0,0.9,0,1.3,0v40.9H245.7z M280.4,328.9c-0.7,2-1.5,4-2.2,5.8c-0.2,0.4-0.3,0.7-0.5,1.1
		c-0.7,1.6-1.4,3.2-2.2,4.7c-0.1,0.3-0.3,0.6-0.4,0.9c-0.9,1.6-1.8,3.2-2.7,4.7c-0.2,0.3-0.4,0.6-0.6,0.9c-0.8,1.3-1.7,2.5-2.6,3.6
		c-0.1,0.2-0.3,0.4-0.4,0.6c-1,1.2-2,2.3-3,3.3c-0.2,0.2-0.5,0.4-0.7,0.7c-0.9,0.9-1.9,1.7-2.8,2.4c-0.1,0.1-0.3,0.2-0.4,0.3
		c-1.1,0.7-2.1,1.3-3.2,1.8c-0.1,0.1-0.2,0.1-0.3,0.1v-41c0.4,0,0.9,0,1.3,0c3.5,0.2,7,0.4,10.5,0.8c0.2,0,0.5,0,0.7,0.1
		c3.7,0.4,7.3,1,10.9,1.6c0.4,0.1,0.7,0.1,1.1,0.2c-0.1,0.2-0.1,0.5-0.2,0.7c-0.6,2-1.1,3.9-1.8,5.7
		C280.7,328.2,280.5,328.5,280.4,328.9z M281,355.9c0.1-0.1,0.1-0.2,0.2-0.4c1.2-1.8,2.4-3.7,3.6-5.7c0.3-0.5,0.5-1,0.8-1.4
		c1-1.9,2-3.8,2.9-5.9c0.1-0.3,0.3-0.6,0.4-0.9c1-2.3,2-4.7,2.9-7.3c0.2-0.6,0.4-1.3,0.7-1.9c0.9-2.6,1.7-5.3,2.5-8.1l0,0
		c0.4,0.1,0.7,0.2,1.1,0.3c1.2,0.3,2.3,0.7,3.4,1c0.6,0.2,1.1,0.4,1.7,0.6c1.1,0.4,2.2,0.8,3.3,1.2c0.5,0.2,1,0.4,1.4,0.5
		c1.4,0.6,2.8,1.1,4.1,1.7c0.1,0,0.2,0.1,0.3,0.1c1.4,0.6,2.8,1.3,4.1,2c0.1,0.1,0.2,0.1,0.3,0.2C305.7,342.7,294,350.9,281,355.9z"
		/>
	<path style="fill:#ACB3BA;" d="M158.3,249.5h12.8c1.8-9.9,5.3-19.3,10.6-28c0.2,0.1,0.5,0.3,0.7,0.4c1.3,0.7,2.6,1.4,3.9,2
		c0.4,0.2,0.7,0.4,1.1,0.5c1.7,0.8,3.5,1.6,5.3,2.3c0.4,0.2,0.8,0.3,1.2,0.5c1.5,0.6,3,1.1,4.5,1.7c0.6,0.2,1.2,0.4,1.8,0.6
		c1.6,0.5,3.2,1,4.8,1.5c0.3,0.1,0.6,0.2,0.9,0.3v0.1h0.1c-0.1,0.7-0.2,1.4-0.4,2.1c-0.1,0.7-0.2,1.5-0.4,2.2
		c-0.4,2.8-0.8,5.6-1.2,8.5v0.1c-0.2,1.7-0.3,3.5-0.4,5.2h12.7c0.1-1.1,0.1-2.3,0.2-3.4c0-0.1,0-0.2,0-0.3c0.4-3.6,0.9-7.1,1.5-10.6
		c0.1-0.4,0.1-0.7,0.2-1.1c0.7,0.1,1.4,0.2,2.1,0.4c0.7,0.1,1.5,0.3,2.2,0.4c2.7,0.4,5.5,0.8,8.3,1.2c0.2,0,0.3,0,0.5,0.1
		c3,0.3,5.9,0.6,9,0.7c0.8,0,1.6,0.1,2.4,0.1c0.9,0,1.8,0.1,2.7,0.1v12.4H258v-12.4c0.9,0,1.8-0.1,2.7-0.1c0.8,0,1.6-0.1,2.3-0.1
		c3-0.2,6-0.4,9-0.7c0.2,0,0.3,0,0.5-0.1c2.8-0.3,5.6-0.7,8.3-1.2c0.7-0.1,1.5-0.2,2.2-0.4c0.7-0.1,1.4-0.2,2.1-0.4
		c0.1,0.4,0.1,0.7,0.2,1.1c0.6,3.5,1.1,7,1.5,10.6c0,0.1,0,0.3,0,0.4c0.1,1.1,0.1,2.3,0.2,3.4h12.7c-0.1-1.7-0.2-3.5-0.4-5.2l0,0
		c-0.3-2.9-0.7-5.8-1.2-8.6c-0.1-0.7-0.2-1.4-0.3-2.1c-0.1-0.7-0.2-1.5-0.4-2.2h0.1v-0.1c0.3-0.1,0.6-0.2,0.9-0.3
		c1.6-0.5,3.2-0.9,4.7-1.4c0.6-0.2,1.2-0.4,1.8-0.6c1.5-0.5,3-1.1,4.4-1.6c0.4-0.2,0.9-0.3,1.3-0.5c1.8-0.7,3.6-1.5,5.3-2.3
		c0.4-0.2,0.8-0.4,1.2-0.6c1.3-0.6,2.6-1.3,3.8-2c0.2-0.1,0.5-0.3,0.8-0.4c5.3,8.7,8.9,18.1,10.6,28h12.8
		c-1.9-12.3-6.2-24.1-12.8-34.8l0.2-0.1l-3.8-5.3l0,0l-3.6-5l-0.2,0.1c-16.6-20.4-41.1-33.1-67.2-34.8v-0.2h-12.6v0.2
		c-26.2,1.8-50.6,14.4-67.2,34.9l-0.2-0.1l-3.6,5l0,0l-3.8,5.3l0.2,0.1C164.6,225.4,160.3,237.2,158.3,249.5z M314.8,211.2
		c-0.1,0.1-0.2,0.1-0.3,0.2c-1.3,0.7-2.6,1.4-4.1,2c-0.1,0.1-0.3,0.1-0.4,0.2c-1.3,0.6-2.6,1.1-4,1.7c-0.5,0.2-1,0.4-1.5,0.6
		c-1,0.4-2.1,0.8-3.2,1.2c-0.6,0.2-1.2,0.4-1.8,0.6c-1.1,0.4-2.2,0.7-3.3,1c-0.4,0.1-0.7,0.2-1.1,0.3c0,0,0,0,0-0.1
		c-0.8-2.8-1.6-5.5-2.5-8.1c-0.2-0.6-0.4-1.2-0.6-1.9c-0.9-2.5-1.9-5-2.9-7.3c-0.1-0.3-0.3-0.6-0.4-0.9c-0.9-2.1-1.9-4.1-3-6
		c-0.3-0.5-0.5-1-0.8-1.4c-1.2-2-2.3-3.9-3.6-5.7c-0.1-0.1-0.1-0.2-0.2-0.4C294,192.2,305.7,200.4,314.8,211.2z M258.3,183.4
		c0.1,0.1,0.2,0.1,0.3,0.2c1.1,0.5,2.1,1.1,3.2,1.8c0.1,0.1,0.3,0.2,0.4,0.3c1,0.7,1.9,1.5,2.8,2.4c0.2,0.2,0.5,0.4,0.7,0.7
		c1,1,2,2.1,3,3.3c0.2,0.2,0.3,0.4,0.5,0.6c0.9,1.1,1.7,2.3,2.5,3.6c0.2,0.3,0.4,0.6,0.6,0.9c0.9,1.5,1.8,3,2.7,4.6
		c0.1,0.3,0.3,0.6,0.4,0.9c0.8,1.5,1.5,3,2.2,4.6c0.2,0.4,0.3,0.7,0.5,1.1c0.8,1.9,1.5,3.8,2.2,5.8c0.1,0.4,0.2,0.8,0.4,1.1
		c0.6,1.8,1.2,3.7,1.7,5.6c0.1,0.2,0.1,0.5,0.2,0.7c-0.4,0.1-0.7,0.1-1.1,0.2c-3.6,0.6-7.2,1.2-10.8,1.6c-0.2,0-0.5,0-0.7,0.1
		c-3.5,0.4-7,0.6-10.5,0.8c-0.4,0-0.9,0-1.3,0v-40.9H258.3z M223.6,214.3c0.7-2,1.5-4,2.2-5.8c0.2-0.4,0.3-0.7,0.5-1.1
		c0.7-1.6,1.4-3.2,2.2-4.7c0.1-0.3,0.3-0.6,0.4-0.9c0.9-1.6,1.8-3.2,2.7-4.7c0.2-0.3,0.4-0.6,0.6-0.9c0.8-1.3,1.7-2.5,2.6-3.6
		c0.1-0.2,0.3-0.4,0.4-0.6c1-1.2,2-2.3,3-3.3c0.2-0.2,0.5-0.4,0.7-0.7c0.9-0.9,1.9-1.7,2.8-2.4c0.1-0.1,0.3-0.2,0.4-0.3
		c1.1-0.7,2.1-1.3,3.2-1.8c0.1-0.1,0.2-0.1,0.3-0.1v41c-0.4,0-0.9,0-1.3,0c-3.5-0.2-7-0.4-10.5-0.8c-0.2,0-0.5,0-0.7-0.1
		c-3.7-0.4-7.3-1-10.9-1.6c-0.4-0.1-0.7-0.1-1.1-0.2c0.1-0.2,0.1-0.5,0.2-0.7c0.6-2,1.1-3.9,1.8-5.7
		C223.3,215,223.5,214.6,223.6,214.3z M223,187.3c-0.1,0.1-0.1,0.2-0.2,0.4c-1.2,1.8-2.4,3.7-3.6,5.7c-0.3,0.5-0.5,1-0.8,1.4
		c-1,1.9-2,3.8-2.9,5.9c-0.1,0.3-0.3,0.6-0.4,0.9c-1,2.3-2,4.7-2.9,7.3c-0.2,0.6-0.4,1.3-0.7,1.9c-0.9,2.6-1.7,5.3-2.5,8.1l0,0
		c-0.4-0.1-0.7-0.2-1.1-0.3c-1.2-0.3-2.3-0.7-3.4-1c-0.6-0.2-1.1-0.4-1.7-0.6c-1.1-0.4-2.2-0.8-3.3-1.2c-0.5-0.2-1-0.4-1.4-0.5
		c-1.4-0.6-2.8-1.1-4.1-1.7c-0.1,0-0.2-0.1-0.3-0.1c-1.4-0.6-2.8-1.3-4.1-2c-0.1-0.1-0.2-0.1-0.3-0.2
		C198.3,200.4,210,192.2,223,187.3z"/>
</g>
<g>
	<path style="fill:#F1543F;" d="M188.7,286.9h-9.8l-11.6-30.6h9.8l6.6,18.5l6.6-18.5h9.2l6.6,18.5l6.6-18.5h9.9L211,286.9h-9.9
		l-6.3-16.7L188.7,286.9z"/>
	<path style="fill:#F1543F;" d="M245.7,286.9h-9.8l-11.6-30.6h9.8l6.6,18.5l6.6-18.5h9.2l6.6,18.5l6.6-18.5h9.9L268,286.9h-9.9
		l-6.3-16.7L245.7,286.9z"/>
	<path style="fill:#F1543F;" d="M302.7,286.9h-9.8l-11.6-30.6h9.8l6.6,18.5l6.6-18.5h9.2l6.6,18.5l6.6-18.5h9.9L325,286.9h-9.9
		l-6.3-16.7L302.7,286.9z"/>
</g>
<g>
</g>
<g>
</g>
<g>
</g>
<g>
</g>
<g>
</g>
<g>
</g>
<g>
</g>
<g>
</g>
<g>
</g>
<g>
</g>
<g>
</g>
<g>
</g>
<g>
</g>
<g>
</g>
<g>
</g>
</svg>
