<svg id="圖層_2" data-name="圖層 2" xmlns="http://www.w3.org/2000/svg" viewBox="0 0 300.851 330.179"><title>logo</title><path d="M191.875,332.279a2.59,2.59,0,0,1-2.866,1.728h0c-2.2-.41-2.148-2.1-2.049-5.464.012-.4.022-.717.021-.848-.522-72.2-2.92-159.884-7.956-184.42-4.241,15.979-15.554,58.455-26.578,98.637-23.306,84.943-25.959,89.719-27.593,90.7a2.811,2.811,0,0,1-2.95-.1c-1.627-1.047-1.752-1.93-1.373-27.743.412-28.037,1.1-74.96-2.838-116.672-4.688-49.653-14.519-78.163-29.218-84.739a9.55,9.55,0,0,0-8.963.629,20.55,20.55,0,0,0-9.144,13.34c-2.21,9.694-.493,28.118,20.244,60.835.553.85,13.815,21.614,3.953,40.045-8.919,16.667-33.532,25.344-73.157,25.787A19.225,19.225,0,0,1,4.324,234.48c-3-5.3-4.62-13.975,3.166-26.2a4.812,4.812,0,0,1,6.991-1.255h0c-7.624,9.912-9.577,18.322-5.8,25a14.164,14.164,0,0,0,12.677,6.974c37.131-.415,60.923-8.42,68.8-23.146,8.483-15.852-3.628-34.8-3.751-34.985-17.4-27.458-24.434-49.2-20.912-64.648a25.441,25.441,0,0,1,11.374-16.47,14.537,14.537,0,0,1,13.65-.951c16.7,7.47,27.215,36.527,32.154,88.833,3.964,41.982,3.272,89.077,2.859,117.215-.073,5.032-.143,9.784-.171,13.76,8.746-27.676,30.071-105.756,50.161-181.613a3.59,3.59,0,0,1,6.783-.469c7.273,17.529,9.14,136.562,9.582,180.134L296.739,6.816a4.345,4.345,0,0,1,5.51-2.724h0a.653.653,0,0,1,.41.828Z" transform="translate(-1.842 -3.861)"/></svg>