<?xml version="1.0"?>
<svg xmlns="http://www.w3.org/2000/svg" xmlns:xlink="http://www.w3.org/1999/xlink" xmlns:svgjs="http://svgjs.com/svgjs" version="1.1" width="512" height="512" x="0" y="0" viewBox="0 0 504 504" style="enable-background:new 0 0 512 512" xml:space="preserve" class=""><g>
<circle xmlns="http://www.w3.org/2000/svg" style="" cx="252" cy="252" r="252" fill="#90dfaa" data-original="#84dbff" class=""/>
<polygon xmlns="http://www.w3.org/2000/svg" style="" points="277.7,94.5 114.2,94.5 114.2,409.3 351.4,409.3 351.4,168.3 " fill="#ffffff" data-original="#ffffff"/>
<polygon xmlns="http://www.w3.org/2000/svg" style="" points="277.7,168.3 351.4,168.3 277.7,94.5 " fill="#acb3ba" data-original="#acb3ba"/>
<rect xmlns="http://www.w3.org/2000/svg" x="133.7" y="115.4" style="" width="124.4" height="56.1" fill="#54c0eb" data-original="#54c0eb"/>
<rect xmlns="http://www.w3.org/2000/svg" x="160.7" y="195.3" style="" width="144.1" height="11.6" fill="#f1543f" data-original="#f1543f"/>
<g xmlns="http://www.w3.org/2000/svg">
	<rect x="140.3" y="232.5" style="" width="184.9" height="10.4" fill="#acb3ba" data-original="#acb3ba"/>
	<rect x="140.3" y="256.7" style="" width="184.9" height="10.4" fill="#acb3ba" data-original="#acb3ba"/>
	<rect x="140.3" y="281" style="" width="184.9" height="10.4" fill="#acb3ba" data-original="#acb3ba"/>
	<rect x="140.3" y="305.2" style="" width="88.7" height="10.4" fill="#acb3ba" data-original="#acb3ba"/>
	<rect x="140.3" y="329.5" style="" width="184.9" height="10.4" fill="#acb3ba" data-original="#acb3ba"/>
	<rect x="140.3" y="353.7" style="" width="184.9" height="10.4" fill="#acb3ba" data-original="#acb3ba"/>
	<rect x="140.3" y="378" style="" width="111.6" height="10.4" fill="#acb3ba" data-original="#acb3ba"/>
</g>
<g xmlns="http://www.w3.org/2000/svg">
	<path style="" d="M161.9,133.7c2.6,2.3,3.9,5.6,3.9,9.8s-1.3,7.5-3.8,9.9s-6.3,3.7-11.5,3.7h-9.2v-26.9h9.5   C155.7,130.1,159.4,131.3,161.9,133.7z M157.5,149.7c1.5-1.4,2.2-3.4,2.2-6s-0.7-4.7-2.2-6.1c-1.5-1.4-3.7-2.1-6.8-2.1h-3.4v16.4   h3.8C153.9,151.7,156.1,151,157.5,149.7z" fill="#ffffff" data-original="#ffffff"/>
	<path style="" d="M193.6,153.3c-2.7,2.7-6.1,4-10.1,4s-7.3-1.3-10-4s-4.1-6-4.1-9.9c0-4,1.4-7.3,4.1-9.9s6.1-4,10-4   s7.3,1.3,10.1,4c2.7,2.7,4.1,6,4.1,9.9C197.7,147.4,196.4,150.7,193.6,153.3z M191.6,143.4c0-2.4-0.8-4.4-2.3-6.1   c-1.5-1.7-3.4-2.5-5.7-2.5c-2.2,0-4.1,0.8-5.7,2.5c-1.5,1.7-2.3,3.7-2.3,6.1s0.8,4.4,2.3,6.1c1.5,1.7,3.4,2.5,5.7,2.5   c2.2,0,4.1-0.8,5.7-2.5C190.8,147.9,191.6,145.8,191.6,143.4z" fill="#ffffff" data-original="#ffffff"/>
	<path style="" d="M215.2,151.7c3,0,5.4-1.2,7.2-3.5l3.8,4c-3.1,3.4-6.7,5.2-10.8,5.2s-7.6-1.3-10.2-3.9   c-2.7-2.6-4-5.9-4-9.9s1.4-7.3,4.1-10c2.7-2.7,6.1-4,10-4c4.4,0,8.1,1.7,11.1,5l-3.7,4.2c-1.9-2.4-4.3-3.5-7.1-3.5   c-2.3,0-4.2,0.7-5.8,2.2s-2.4,3.5-2.4,6s0.8,4.5,2.3,6C211.2,151,213,151.7,215.2,151.7z" fill="#ffffff" data-original="#ffffff"/>
	<path style="" d="M237.3,135.5c-0.6,0.5-0.9,1.1-0.9,1.9c0,0.8,0.4,1.4,1.1,1.9c0.7,0.5,2.3,1,4.9,1.6   c2.6,0.6,4.5,1.6,6,2.8c1.4,1.3,2.1,3.1,2.1,5.5s-0.9,4.4-2.7,5.9s-4.2,2.3-7.1,2.3c-4.3,0-8.1-1.6-11.5-4.7l3.6-4.4   c2.9,2.5,5.6,3.8,8,3.8c1.1,0,2-0.2,2.6-0.7s0.9-1.1,0.9-1.9s-0.3-1.5-1-1.9c-0.7-0.5-2-1-4-1.4c-3.1-0.7-5.4-1.7-6.9-2.9   s-2.2-3.1-2.2-5.6c0-2.6,0.9-4.5,2.8-5.9c1.8-1.4,4.1-2.1,6.9-2.1c1.8,0,3.6,0.3,5.4,0.9c1.8,0.6,3.4,1.5,4.7,2.6l-3,4.4   c-2.3-1.8-4.8-2.7-7.2-2.7C238.7,134.8,237.9,135,237.3,135.5z" fill="#ffffff" data-original="#ffffff"/>
</g>
<path xmlns="http://www.w3.org/2000/svg" style="" d="M429.1,334.8v-60.2c-41.4-1.5-59.7-25.3-59.7-25.3s-18.3,23.9-59.7,25.3v60.2c0,0-4.4,52.3,59.7,74.7  C433.5,387.1,429.1,334.8,429.1,334.8z" fill="#324a5e" data-original="#324a5e"/>
<path xmlns="http://www.w3.org/2000/svg" style="" d="M376.8,324.3h38.7V287c-16.7-2.5-29.5-8.2-38.7-14V324.3z" fill="#ffd05b" data-original="#ffd05b"/>
<path xmlns="http://www.w3.org/2000/svg" style="" d="M362.1,324.3V273c-9.2,5.8-22,11.5-38.7,14v37.3H362.1z" fill="#ffffff" data-original="#ffffff"/>
<path xmlns="http://www.w3.org/2000/svg" style="" d="M362.1,339.1h-38.7c0.5,9.3,4.9,36,38.7,52.6V339.1z" fill="#ffd05b" data-original="#ffd05b"/>
<path xmlns="http://www.w3.org/2000/svg" style="" d="M376.8,339.1v52.6c33.9-16.7,38.2-43.5,38.7-52.6H376.8z" fill="#ffffff" data-original="#ffffff"/>
<g xmlns="http://www.w3.org/2000/svg">
</g>
<g xmlns="http://www.w3.org/2000/svg">
</g>
<g xmlns="http://www.w3.org/2000/svg">
</g>
<g xmlns="http://www.w3.org/2000/svg">
</g>
<g xmlns="http://www.w3.org/2000/svg">
</g>
<g xmlns="http://www.w3.org/2000/svg">
</g>
<g xmlns="http://www.w3.org/2000/svg">
</g>
<g xmlns="http://www.w3.org/2000/svg">
</g>
<g xmlns="http://www.w3.org/2000/svg">
</g>
<g xmlns="http://www.w3.org/2000/svg">
</g>
<g xmlns="http://www.w3.org/2000/svg">
</g>
<g xmlns="http://www.w3.org/2000/svg">
</g>
<g xmlns="http://www.w3.org/2000/svg">
</g>
<g xmlns="http://www.w3.org/2000/svg">
</g>
<g xmlns="http://www.w3.org/2000/svg">
</g>
</g></svg>
